<svg xmlns="http://www.w3.org/2000/svg" viewBox="0 0 100 100" width="100" height="100" role="img" aria-label="Loupe mark (dark)"><path d="M 50 17 A 33 33 0 0 1 55.16 17.41" fill="none" stroke="#a0c8ee" stroke-width="6.7"/><path d="M 52.88 17.13 A 33 33 0 0 1 57.98 17.98" fill="none" stroke="#a3c7eb" stroke-width="6.7"/><path d="M 55.73 17.5 A 33 33 0 0 1 60.74 18.8" fill="none" stroke="#a6c5e8" stroke-width="6.7"/><path d="M 58.54 18.12 A 33 33 0 0 1 63.42 19.85" fill="none" stroke="#a9c3e5" stroke-width="6.7"/><path d="M 61.29 18.99 A 33 33 0 0 1 66 21.14" fill="none" stroke="#acc2e2" stroke-width="6.7"/><path d="M 63.95 20.09 A 33 33 0 0 1 68.45 22.64" fill="none" stroke="#afc0df" stroke-width="6.7"/><path d="M 66.5 21.42 A 33 33 0 0 1 70.77 24.35" fill="none" stroke="#b2bfdc" stroke-width="6.7"/><path d="M 68.93 22.97 A 33 33 0 0 1 72.92 26.26" fill="none" stroke="#b5bdd9" stroke-width="6.7"/><path d="M 71.21 24.72 A 33 33 0 0 1 74.91 28.35" fill="none" stroke="#b8bcd6" stroke-width="6.7"/><path d="M 73.33 26.67 A 33 33 0 0 1 76.7 30.6" fill="none" stroke="#bbbad3" stroke-width="6.7"/><path d="M 75.28 28.79 A 33 33 0 0 1 78.29 33" fill="none" stroke="#beb8d0" stroke-width="6.7"/><path d="M 77.03 31.07 A 33 33 0 0 1 79.66 35.53" fill="none" stroke="#c1b7cd" stroke-width="6.7"/><path d="M 78.58 33.5 A 33 33 0 0 1 80.81 38.17" fill="none" stroke="#c4b5c9" stroke-width="6.7"/><path d="M 79.91 36.05 A 33 33 0 0 1 81.72 40.9" fill="none" stroke="#c7b4c6" stroke-width="6.7"/><path d="M 81.01 38.71 A 33 33 0 0 1 82.39 43.7" fill="none" stroke="#cab2c3" stroke-width="6.7"/><path d="M 81.88 41.46 A 33 33 0 0 1 82.82 46.55" fill="none" stroke="#cdb0c0" stroke-width="6.7"/><path d="M 82.5 44.27 A 33 33 0 0 1 82.99 49.42" fill="none" stroke="#d0afbd" stroke-width="6.7"/><path d="M 82.87 47.12 A 33 33 0 0 1 82.92 52.3" fill="none" stroke="#d3adba" stroke-width="6.7"/><path d="M 83 50 A 33 33 0 0 1 82.59 55.16" fill="none" stroke="#d6acb7" stroke-width="6.7"/><path d="M 82.87 52.88 A 33 33 0 0 1 82.02 57.98" fill="none" stroke="#d9aab4" stroke-width="6.7"/><path d="M 82.5 55.73 A 33 33 0 0 1 81.2 60.74" fill="none" stroke="#dca9b1" stroke-width="6.7"/><path d="M 81.88 58.54 A 33 33 0 0 1 80.15 63.42" fill="none" stroke="#dfa7ae" stroke-width="6.7"/><path d="M 81.01 61.29 A 33 33 0 0 1 78.86 66" fill="none" stroke="#e2a5ab" stroke-width="6.7"/><path d="M 79.91 63.95 A 33 33 0 0 1 77.36 68.45" fill="none" stroke="#e5a4a8" stroke-width="6.7"/><path d="M 78.58 66.5 A 33 33 0 0 1 75.65 70.77" fill="none" stroke="#e5a4a7" stroke-width="6.7"/><path d="M 77.03 68.93 A 33 33 0 0 1 73.74 72.92" fill="none" stroke="#e2a7a9" stroke-width="6.7"/><path d="M 75.28 71.21 A 33 33 0 0 1 71.65 74.91" fill="none" stroke="#dfaaab" stroke-width="6.7"/><path d="M 73.33 73.33 A 33 33 0 0 1 69.4 76.7" fill="none" stroke="#ddadae" stroke-width="6.7"/><path d="M 71.21 75.28 A 33 33 0 0 1 67 78.29" fill="none" stroke="#dab0b0" stroke-width="6.7"/><path d="M 68.93 77.03 A 33 33 0 0 1 64.47 79.66" fill="none" stroke="#d7b2b2" stroke-width="6.7"/><path d="M 66.5 78.58 A 33 33 0 0 1 61.83 80.81" fill="none" stroke="#d5b5b4" stroke-width="6.7"/><path d="M 63.95 79.91 A 33 33 0 0 1 59.1 81.72" fill="none" stroke="#d2b8b6" stroke-width="6.7"/><path d="M 61.29 81.01 A 33 33 0 0 1 56.3 82.39" fill="none" stroke="#cfbbb8" stroke-width="6.7"/><path d="M 58.54 81.88 A 33 33 0 0 1 53.45 82.82" fill="none" stroke="#cdbebb" stroke-width="6.7"/><path d="M 55.73 82.5 A 33 33 0 0 1 50.58 82.99" fill="none" stroke="#cac0bd" stroke-width="6.7"/><path d="M 52.88 82.87 A 33 33 0 0 1 47.7 82.92" fill="none" stroke="#c7c3bf" stroke-width="6.7"/><path d="M 50 83 A 33 33 0 0 1 44.84 82.59" fill="none" stroke="#c5c6c1" stroke-width="6.7"/><path d="M 47.12 82.87 A 33 33 0 0 1 42.02 82.02" fill="none" stroke="#c2c9c3" stroke-width="6.7"/><path d="M 44.27 82.5 A 33 33 0 0 1 39.26 81.2" fill="none" stroke="#bfcbc5" stroke-width="6.7"/><path d="M 41.46 81.88 A 33 33 0 0 1 36.58 80.15" fill="none" stroke="#bdcec8" stroke-width="6.7"/><path d="M 38.71 81.01 A 33 33 0 0 1 34 78.86" fill="none" stroke="#bad1ca" stroke-width="6.7"/><path d="M 36.05 79.91 A 33 33 0 0 1 31.55 77.36" fill="none" stroke="#b7d4cc" stroke-width="6.7"/><path d="M 33.5 78.58 A 33 33 0 0 1 29.23 75.65" fill="none" stroke="#b5d7ce" stroke-width="6.7"/><path d="M 31.07 77.03 A 33 33 0 0 1 27.08 73.74" fill="none" stroke="#b2d9d0" stroke-width="6.7"/><path d="M 28.79 75.28 A 33 33 0 0 1 25.09 71.65" fill="none" stroke="#afdcd2" stroke-width="6.7"/><path d="M 26.67 73.33 A 33 33 0 0 1 23.3 69.4" fill="none" stroke="#addfd5" stroke-width="6.7"/><path d="M 24.72 71.21 A 33 33 0 0 1 21.71 67" fill="none" stroke="#aae2d7" stroke-width="6.7"/><path d="M 22.97 68.93 A 33 33 0 0 1 20.34 64.47" fill="none" stroke="#a7e5d9" stroke-width="6.7"/><path d="M 21.42 66.5 A 33 33 0 0 1 19.19 61.83" fill="none" stroke="#a6e5da" stroke-width="6.7"/><path d="M 20.09 63.95 A 33 33 0 0 1 18.28 59.1" fill="none" stroke="#a6e4db" stroke-width="6.7"/><path d="M 18.99 61.29 A 33 33 0 0 1 17.61 56.3" fill="none" stroke="#a5e3dc" stroke-width="6.7"/><path d="M 18.12 58.54 A 33 33 0 0 1 17.18 53.45" fill="none" stroke="#a5e2dd" stroke-width="6.7"/><path d="M 17.5 55.73 A 33 33 0 0 1 17.01 50.58" fill="none" stroke="#a5e1de" stroke-width="6.7"/><path d="M 17.13 52.88 A 33 33 0 0 1 17.08 47.7" fill="none" stroke="#a4dfdf" stroke-width="6.7"/><path d="M 17 50 A 33 33 0 0 1 17.41 44.84" fill="none" stroke="#a4dee0" stroke-width="6.7"/><path d="M 17.13 47.12 A 33 33 0 0 1 17.98 42.02" fill="none" stroke="#a4dde1" stroke-width="6.7"/><path d="M 17.5 44.27 A 33 33 0 0 1 18.8 39.26" fill="none" stroke="#a4dce2" stroke-width="6.7"/><path d="M 18.12 41.46 A 33 33 0 0 1 19.85 36.58" fill="none" stroke="#a3dbe3" stroke-width="6.7"/><path d="M 18.99 38.71 A 33 33 0 0 1 21.14 34" fill="none" stroke="#a3d9e4" stroke-width="6.7"/><path d="M 20.09 36.05 A 33 33 0 0 1 22.64 31.55" fill="none" stroke="#a3d8e5" stroke-width="6.7"/><path d="M 21.42 33.5 A 33 33 0 0 1 24.35 29.23" fill="none" stroke="#a2d7e5" stroke-width="6.7"/><path d="M 22.97 31.07 A 33 33 0 0 1 26.26 27.08" fill="none" stroke="#a2d6e6" stroke-width="6.7"/><path d="M 24.72 28.79 A 33 33 0 0 1 28.35 25.09" fill="none" stroke="#a2d4e7" stroke-width="6.7"/><path d="M 26.67 26.67 A 33 33 0 0 1 30.6 23.3" fill="none" stroke="#a1d3e8" stroke-width="6.7"/><path d="M 28.79 24.72 A 33 33 0 0 1 33 21.71" fill="none" stroke="#a1d2e9" stroke-width="6.7"/><path d="M 31.07 22.97 A 33 33 0 0 1 35.53 20.34" fill="none" stroke="#a1d1ea" stroke-width="6.7"/><path d="M 33.5 21.42 A 33 33 0 0 1 38.17 19.19" fill="none" stroke="#a1d0eb" stroke-width="6.7"/><path d="M 36.05 20.09 A 33 33 0 0 1 40.9 18.28" fill="none" stroke="#a0ceec" stroke-width="6.7"/><path d="M 38.71 18.99 A 33 33 0 0 1 43.7 17.61" fill="none" stroke="#a0cded" stroke-width="6.7"/><path d="M 41.46 18.12 A 33 33 0 0 1 46.55 17.18" fill="none" stroke="#a0ccee" stroke-width="6.7"/><path d="M 44.27 17.5 A 33 33 0 0 1 49.42 17.01" fill="none" stroke="#9fcbef" stroke-width="6.7"/><path d="M 47.12 17.13 A 33 33 0 0 1 52.3 17.08" fill="none" stroke="#9fcaf0" stroke-width="6.7"/><line x1="50" y1="40" x2="50" y2="60" stroke="#ff2b2b" stroke-width="2.9" stroke-linecap="round"/><line x1="40" y1="50" x2="60" y2="50" stroke="#ff2b2b" stroke-width="2.9" stroke-linecap="round"/></svg>
